<?xml version="1.0" encoding="utf-8"?>
<!-- Generator: Adobe Illustrator 23.0.3, SVG Export Plug-In . SVG Version: 6.00 Build 0)  -->
<svg version="1.1" id="Layer_1" xmlns="http://www.w3.org/2000/svg" xmlns:xlink="http://www.w3.org/1999/xlink" x="0px" y="0px"
	 viewBox="0 0 512 512" style="enable-background:new 0 0 512 512;" xml:space="preserve">
<g>
	<g>
		<g>
			<path d="M498.5,242.5H46l111.8-111.8c5.3-5.3,5.3-13.8,0-19.1c-5.3-5.3-13.8-5.3-19.1,0L3.9,246.5c-0.4,0.4-0.6,1-1,1.5
				c-0.7,0.9-1.5,1.8-1.9,2.9C0.4,252.5,0,254.2,0,256v0c0,0.3,0.1,0.5,0.1,0.7c0.1,1.5,0.3,3,0.9,4.4c0.7,1.7,1.7,3.2,3,4.5
				l134.6,134.7c2.6,2.6,6.1,3.9,9.5,3.9c3.4,0,6.9-1.3,9.5-3.9c5.3-5.3,5.3-13.8,0-19.1L46,269.5h452.5c7.5,0,13.5-6,13.5-13.5
				C512,248.6,506,242.5,498.5,242.5z"/>
		</g>
	</g>
</g>
</svg>
