<?xml version="1.0" encoding="utf-8"?>
<!-- Generator: Adobe Illustrator 23.0.3, SVG Export Plug-In . SVG Version: 6.00 Build 0)  -->
<svg version="1.1" id="Layer_1" xmlns="http://www.w3.org/2000/svg" xmlns:xlink="http://www.w3.org/1999/xlink" x="0px" y="0px"
	 viewBox="0 0 512 512" style="enable-background:new 0 0 512 512;" xml:space="preserve">
<style type="text/css">
	.st0{fill:#FFFFFF;}
</style>
<g>
	<g>
		<g>
			<path class="st0" d="M256,34.1c-9.4,0-17.1,7.7-17.1,17.1c0,9.4,7.7,17.1,17.1,17.1c9.4,0,17.1-7.7,17.1-17.1
				C273.1,41.8,265.4,34.1,256,34.1z"/>
			<path class="st0" d="M358.4,366.9c0-4.7-3.8-8.5-8.5-8.5h-85.3c-4.7,0-8.5,3.8-8.5,8.5s3.8,8.5,8.5,8.5h85.3
				C354.6,375.5,358.4,371.6,358.4,366.9z"/>
			<path class="st0" d="M162.1,170.7c-14.1,0-25.6,11.5-25.6,25.6s11.5,25.6,25.6,25.6h187.7c14.1,0,25.6-11.5,25.6-25.6
				s-11.5-25.6-25.6-25.6h-17.1c-4.7,0-8.5,3.8-8.5,8.5s3.8,8.5,8.5,8.5h17.1c4.7,0,8.5,3.8,8.5,8.5c0,4.7-3.8,8.5-8.5,8.5H162.1
				c-4.7,0-8.5-3.8-8.5-8.5c0-4.7,3.8-8.5,8.5-8.5h17.1c4.7,0,8.5-3.8,8.5-8.5s-3.8-8.5-8.5-8.5H162.1z"/>
			<path class="st0" d="M264.5,409.6c-4.7,0-8.5,3.8-8.5,8.5s3.8,8.5,8.5,8.5h34.1c4.7,0,8.5-3.8,8.5-8.5s-3.8-8.5-8.5-8.5H264.5z"
				/>
			<path class="st0" d="M213.3,187.7h85.3c4.7,0,8.5-3.8,8.5-8.5V8.5c0-4.7-3.8-8.5-8.5-8.5h-85.3c-4.7,0-8.5,3.8-8.5,8.5v170.7
				C204.8,183.9,208.6,187.7,213.3,187.7z M221.9,17.1h68.3v153.6h-68.3V17.1z"/>
			<path class="st0" d="M443.7,366.9c0-4.7-3.8-8.5-8.5-8.5H384c-4.7,0-8.5,3.8-8.5,8.5s3.8,8.5,8.5,8.5h51.2
				C439.9,375.5,443.7,371.6,443.7,366.9z"/>
			<path class="st0" d="M162.1,273.1H128c-28.2,0-51.2,23-51.2,51.2v2.3c-5.1,3-8.5,8.5-8.5,14.8v17.1c0,6.4,3.6,12.1,8.9,15
				c1.6,16.4,8.8,30.8,9.1,31.5c7.7,15.5,19.4,38.9,58.8,38.9s51.1-23.4,58.8-38.9c0.3-0.7,7.5-15.1,9.1-31.5
				c5.3-2.9,8.9-8.5,8.9-15v-17.1c0-6.3-3.4-11.8-8.5-14.8v-2.3C213.3,296,190.4,273.1,162.1,273.1z M204.8,358.4
				c-4.7,0-8.5,3.8-8.5,8.5c0,14.8-7.6,30.2-7.6,30.3c-8.9,17.8-16.7,29.4-43.6,29.4s-34.7-11.6-43.6-29.4
				c-0.1-0.2-7.6-15.6-7.6-30.3c0-4.7-3.8-8.5-8.5-8.5v-17.1c4.7,0,8.5-3.8,8.5-8.5v-8.5c0-18.8,15.3-34.1,34.1-34.1h34.1
				c18.8,0,34.1,15.3,34.1,34.1v8.5c0,4.7,3.8,8.5,8.5,8.5L204.8,358.4L204.8,358.4z"/>
			<path class="st0" d="M469.3,136.5H324.3c-4.7,0-8.5,3.8-8.5,8.5s3.8,8.5,8.5,8.5h145.1c14.1,0,25.6,11.5,25.6,25.6v290.1
				c0,14.1-11.5,25.6-25.6,25.6H42.7c-14.1,0-25.6-11.5-25.6-25.6V179.2c0-14.1,11.5-25.6,25.6-25.6h128c4.7,0,8.5-3.8,8.5-8.5
				s-3.8-8.5-8.5-8.5h-128C19.1,136.5,0,155.7,0,179.2v290.1C0,492.9,19.1,512,42.7,512h426.7c23.5,0,42.7-19.1,42.7-42.7V179.2
				C512,155.7,492.9,136.5,469.3,136.5z"/>
			<path class="st0" d="M170.7,341.3h-8.5c-4.7,0-8.5,3.8-8.5,8.5s3.8,8.5,8.5,8.5h8.5c4.7,0,8.5-3.8,8.5-8.5
				S175.4,341.3,170.7,341.3z"/>
			<path class="st0" d="M384,290.1H264.5c-4.7,0-8.5,3.8-8.5,8.5s3.8,8.5,8.5,8.5H384c4.7,0,8.5-3.8,8.5-8.5S388.7,290.1,384,290.1z
				"/>
			<path class="st0" d="M332.8,426.7h85.3c4.7,0,8.5-3.8,8.5-8.5s-3.8-8.5-8.5-8.5h-85.3c-4.7,0-8.5,3.8-8.5,8.5
				S328.1,426.7,332.8,426.7z"/>
			<path class="st0" d="M128,341.3h-8.5c-4.7,0-8.5,3.8-8.5,8.5s3.8,8.5,8.5,8.5h8.5c4.7,0,8.5-3.8,8.5-8.5S132.7,341.3,128,341.3z"
				/>
		</g>
	</g>
</g>
</svg>
