<?xml version="1.0" encoding="iso-8859-1"?>
<!-- Generator: Adobe Illustrator 19.0.0, SVG Export Plug-In . SVG Version: 6.00 Build 0)  -->
<svg version="1.1" id="Layer_1" xmlns="http://www.w3.org/2000/svg" xmlns:xlink="http://www.w3.org/1999/xlink" x="0px" y="0px"
	 viewBox="0 0 512 512" style="enable-background:new 0 0 512 512;" xml:space="preserve">
<g>
	<g>
		<g>
			<path d="M256,34.133c-9.412,0-17.067,7.654-17.067,17.067c0,9.412,7.654,17.067,17.067,17.067
				c9.412,0,17.067-7.654,17.067-17.067C273.067,41.788,265.412,34.133,256,34.133z"/>
			<path d="M358.4,366.933c0-4.71-3.814-8.533-8.533-8.533h-85.333c-4.719,0-8.533,3.823-8.533,8.533s3.814,8.533,8.533,8.533
				h85.333C354.586,375.467,358.4,371.644,358.4,366.933z"/>
			<path d="M162.133,170.667c-14.114,0-25.6,11.486-25.6,25.6s11.486,25.6,25.6,25.6h187.733c14.114,0,25.6-11.486,25.6-25.6
				s-11.486-25.6-25.6-25.6H332.8c-4.719,0-8.533,3.823-8.533,8.533s3.814,8.533,8.533,8.533h17.067c4.71,0,8.533,3.831,8.533,8.533
				c0,4.702-3.823,8.533-8.533,8.533H162.133c-4.71,0-8.533-3.831-8.533-8.533c0-4.702,3.823-8.533,8.533-8.533H179.2
				c4.719,0,8.533-3.823,8.533-8.533s-3.814-8.533-8.533-8.533H162.133z"/>
			<path d="M264.533,409.6c-4.719,0-8.533,3.823-8.533,8.533s3.814,8.533,8.533,8.533h34.133c4.719,0,8.533-3.823,8.533-8.533
				s-3.814-8.533-8.533-8.533H264.533z"/>
			<path d="M213.333,187.733h85.333c4.719,0,8.533-3.823,8.533-8.533V8.533c0-4.71-3.814-8.533-8.533-8.533h-85.333
				c-4.719,0-8.533,3.823-8.533,8.533V179.2C204.8,183.91,208.614,187.733,213.333,187.733z M221.867,17.067h68.267v153.6h-68.267
				V17.067z"/>
			<path d="M443.733,366.933c0-4.71-3.814-8.533-8.533-8.533H384c-4.719,0-8.533,3.823-8.533,8.533s3.814,8.533,8.533,8.533h51.2
				C439.919,375.467,443.733,371.644,443.733,366.933z"/>
			<path d="M162.133,273.067H128c-28.237,0-51.2,22.963-51.2,51.2v2.295c-5.103,2.953-8.533,8.465-8.533,14.771V358.4
				c0,6.434,3.584,12.058,8.858,14.959c1.63,16.401,8.764,30.839,9.105,31.522c7.74,15.471,19.43,38.852,58.837,38.852
				c39.407,0,51.098-23.381,58.837-38.852c0.341-0.683,7.475-15.121,9.105-31.522c5.274-2.901,8.858-8.525,8.858-14.959v-17.067
				c0-6.306-3.43-11.819-8.533-14.771v-2.295C213.333,296.03,190.37,273.067,162.133,273.067z M204.8,358.4
				c-4.719,0-8.533,3.823-8.533,8.533c0,14.763-7.561,30.174-7.637,30.319c-8.883,17.766-16.717,29.414-43.563,29.414
				c-26.846,0-34.679-11.648-43.554-29.406c-0.085-0.154-7.646-15.565-7.646-30.327c0-4.71-3.814-8.533-8.533-8.533v-17.067
				c4.719,0,8.533-3.823,8.533-8.533v-8.533c0-18.825,15.309-34.133,34.133-34.133h34.133c18.825,0,34.133,15.309,34.133,34.133
				v8.533c0,4.71,3.814,8.533,8.533,8.533V358.4z"/>
			<path d="M469.333,136.533H324.267c-4.719,0-8.533,3.823-8.533,8.533c0,4.71,3.814,8.533,8.533,8.533h145.067
				c14.114,0,25.6,11.486,25.6,25.6v290.133c0,14.114-11.486,25.6-25.6,25.6H42.667c-14.114,0-25.6-11.486-25.6-25.6V179.2
				c0-14.114,11.486-25.6,25.6-25.6h128c4.719,0,8.533-3.823,8.533-8.533c0-4.71-3.814-8.533-8.533-8.533h-128
				C19.14,136.533,0,155.674,0,179.2v290.133C0,492.86,19.14,512,42.667,512h426.667C492.86,512,512,492.86,512,469.333V179.2
				C512,155.674,492.86,136.533,469.333,136.533z"/>
			<path d="M170.667,341.333h-8.533c-4.719,0-8.533,3.823-8.533,8.533s3.814,8.533,8.533,8.533h8.533
				c4.719,0,8.533-3.823,8.533-8.533S175.386,341.333,170.667,341.333z"/>
			<path d="M384,290.133H264.533c-4.719,0-8.533,3.823-8.533,8.533s3.814,8.533,8.533,8.533H384c4.719,0,8.533-3.823,8.533-8.533
				S388.719,290.133,384,290.133z"/>
			<path d="M332.8,426.667h85.333c4.719,0,8.533-3.823,8.533-8.533s-3.814-8.533-8.533-8.533H332.8
				c-4.719,0-8.533,3.823-8.533,8.533S328.081,426.667,332.8,426.667z"/>
			<path d="M128,341.333h-8.533c-4.719,0-8.533,3.823-8.533,8.533s3.814,8.533,8.533,8.533H128c4.719,0,8.533-3.823,8.533-8.533
				S132.719,341.333,128,341.333z"/>
		</g>
	</g>
</g>
<g>
</g>
<g>
</g>
<g>
</g>
<g>
</g>
<g>
</g>
<g>
</g>
<g>
</g>
<g>
</g>
<g>
</g>
<g>
</g>
<g>
</g>
<g>
</g>
<g>
</g>
<g>
</g>
<g>
</g>
</svg>
