<svg xmlns="http://www.w3.org/2000/svg" viewBox="0 0 409.81 409.54"><defs><style>.cls-1{fill:#fefefe;}.cls-2{fill:#020202;}.cls-3{fill:#010101;}.cls-4{fill:#050505;}.cls-5{fill:#030303;}.cls-6{fill:#060606;}.cls-7{fill:#090909;}.cls-8{fill:#0c0c0c;}.cls-9{fill:#121212;}</style></defs><title>Calander</title><g id="Layer_2" data-name="Layer 2"><g id="Layer_1-2" data-name="Layer 1"><path class="cls-1" d="M399.75,363c-17.14,35.58-57.56,51.68-92.83,36.61-33.58-14.34-51-53.62-38.91-87.58,9.7-27.17,35.83-47.15,63.58-48.58,28-1.45,56.2,16.69,68.79,43.79,2.19,4.7,1.1,12.39,9.43,12.74q-3-7.19-6.05-14.38a74.81,74.81,0,1,0-45.1,99.89c27.57-9.34,42.19-30.51,51.15-56.71C401.1,349.62,402.23,357.81,399.75,363Zm2-122.89c-.19-46.27-.05-92.53-.11-138.8,0-15.41.73-30.87-.39-46.25-1.52-20.91-10.49-29.37-31.12-30.8-5.44-.38-11.44,1.12-18.82-5.4,19.62-2.1,34.94-.91,47.06,13.13,3.26,3.78,4.64,10,11.46,9.65-7.87-19.2-21.82-29.74-42.9-27.92-8.39.72-23.45-5.87-23.47,7.27,0,11.43,14.71,5.84,22.8,6.21,23,1,30,7.66,30.11,31.13.09,25,0,50,0,74.95q0,59.79,0,119.6c0,9.42,1.3,17.14,13.43,9.52C399.76,257.6,401.76,248.25,401.73,240.06ZM382.68,126.19c.22-13-3.79-17.69-17.43-17.51-53.3.72-106.62.3-159.93.3-52.78,0-105.57.6-158.33-.37-16-.3-19.78,5.27-19.64,20.24.64,72,.22,143.94.32,215.91,0,28.51,8.77,37.31,37.1,37.37q84.77.19,169.53,0a101.12,101.12,0,0,0,11.15-.49c3.35-.38,6.54-2,6.75-5.63.25-4.34-2.94-6.87-6.91-7.41-4.2-.57-8.51-.34-12.77-.34-57.05,0-114.09-.26-171.13.16-14.28.1-20.09-5.24-20-19.74q.57-106.35,0-212.71c-.06-10.18,2.18-13.59,13.06-13.54q150.35.64,300.68,0c11.75,0,13.94,3.86,13.73,14.51-.64,33-.29,66.1-.18,99.16,0,6.1-1.87,15.13,6.8,15.34,9,.22,6.95-9,7-14.88C382.55,199.76,382.07,163,382.68,126.19Zm-1.2-38.62c-.21-3.15-2.54-4.62-5.35-4.89-4.23-.4-8.49-.58-12.74-.58q-85.56,0-171.11,0c-58.1,0-116.21.4-174.3-.29C3.79,81.62-.09,86.17,0,100.1c.57,88.48.25,177,.31,265.45C.33,395.9,13.82,409.47,44,409.5q102.35.11,204.68,0a66.13,66.13,0,0,0,12.68-.91c2.63-.53,4.32-2.95,4.28-6s-1.67-5.29-4.5-5.66a108.5,108.5,0,0,0-14.31-.81q-99.95-.08-199.89,0c-26.46,0-33.23-6.72-33.24-33,0-83.68.32-167.37-.35-251.06-.1-13.28,3.19-16.65,16.49-16.58,110.87.56,221.74.33,332.62.29a83.9,83.9,0,0,0,14.28-.84C380.32,94.27,381.71,91.05,381.48,87.57Zm-73.87,63.32c-16.85-4.33-21.15,3.24-21,19.21.16,14.78,2.34,22.79,19.87,21.62,21.19-1.41,20.49-.32,21.51-21.33C328.77,154.8,324.94,146.28,307.61,150.89Zm-.38,26.92c-5.94,0-6.68-3.21-6.68-8,0-4.5,1.47-6.52,6.3-6.62,5.22-.1,8,1.41,7.34,6.95C314.74,175.39,312.8,177.81,307.23,177.81Zm.08,40.4c-3.71,0-7.43-.19-11.12,0-6.54.4-9.36,4.42-9.1,10.59.24,5.57-2.23,12.93,4.53,15.56,7.11,2.76,6.94-4.86,9.93-8.68,4.37-5.57,10.64-7.24,12.77,3.07.84,4.07,3.81,7,7.83,6.36s5-4.69,5.66-8.6C330.16,221.59,326.33,218.06,307.31,218.21ZM313.83,0c8.67,14.07,9.86,29.51,8.34,45.47C321.33,54.25,318,61.53,308.22,62c-10.72.46-14.59-7-15.52-16.48C291.15,29.52,292.36,14.07,301,0c-13.18,10.44-19.56,42.76-11.15,57.52,3.62,6.35,9.11,10,16.75,10.21C314.88,68,321,64.5,325,57.52,333.38,42.76,327,10.44,313.83,0Zm-54,170.63c-.94-20.42-.32-19.28-21.8-20.77-17.55-1.22-20.62,6.55-19.85,21.55,1,19.83.44,20,23.85,20C257.33,195.16,260.51,185.83,259.82,170.63Zm-20,7.37c-5,.37-8.06-1.41-8.1-7,0-4.95,1.3-8,7.1-7.95,4.92.06,8,1,7.94,6.9C246.67,174.91,245.6,178.28,239.83,178ZM259,239.34c3.88-16.52-2.65-22.39-19.19-21.5-21,1.13-21.33.5-21.39,20-.07,21.43,0,20.64,20.92,21.68C254.93,260.32,263.46,256.5,259,239.34Zm-12.37,1.19c.16,6.59-4.56,5.82-8.77,5.82-6.28,0-6.21-4.43-6-8.8.26-6,4.48-6.21,9-6C247.06,231.78,246.77,236.2,246.63,240.53ZM246.64,0a5.8,5.8,0,0,0,1.21,5.9c10.68,13,7.76,28.15,6.27,42.81-.74,7.3-5.06,13.08-13.35,13.55-8.54.49-14.06-3.88-16.75-11.9-1.72-5.11-1.08-10.6-2.12-15.73-2.65-13.12,8.3-22.5,8.74-34.63-16.93,15.46-13.57,35-10.1,54.07,1.56,8.59,8.44,13.08,17.34,13.6s15.37-3.17,19.36-11.08C264.68,41.88,258.87,11.09,246.64,0ZM192,239.47c-1.11-21-.44-21.29-20.07-21.35-21.38-.06-20.58,0-21.64,21-.78,15.67,3.22,24,20.27,19.6C187.12,262.63,192.84,255.93,192,239.47Zm-21.11,7c-5-.14-8.42-1.34-7.32-6.72-.62-5.92,1.73-8.32,7.15-8.32,5.25,0,7.7,2.16,7.71,7.52S176.29,246.6,170.85,246.46ZM170.53,150c-16-.84-23.69,3.74-19.39,20.65-4.21,16.82,3.26,21.86,19.38,21.05,20.9-1,21.12-.39,21.16-20.24C191.73,150.21,191.69,151.06,170.53,150ZM170.18,178c-5.82.25-6.75-3.25-6.84-8.13-.12-6,3.17-6.75,8-6.81,5.84-.07,7,3.14,7,8C178.31,176.72,175.16,178.38,170.18,178ZM179.45,0c-1.78,4.1.63,7.28,2.67,10.25,7.22,10.5,6.52,22.22,5.28,33.89-1,9.8-5.24,17.89-16.49,18.09-11.84.2-14.45-8.64-15.84-18.23-2.27-15.66,1.42-30.13,8.39-44-12.24,11.09-18,41.88-10.6,56.59,4,7.91,10.54,11.6,19.36,11.08s15.78-5,17.34-13.6C193,35,196.39,15.46,179.45,0ZM123.2,173.61c-1.3-11.6,3.72-25.06-17.15-23.76-23.51,1.47-23.59.18-23.73,21.73-.94,9.8-1.79,21.74,17.77,20.1C112.64,190.63,125.41,193.29,123.2,173.61Zm-20.16,4c-6.25.68-7.14-2.74-7.28-7.61-.16-5.83,2.78-6.79,7.73-6.78s6,2.62,6,6.85C109.58,174.92,108.62,178.48,103,177.61Zm20,64.23c0-23.64,0-22.9-19.42-23.94-14.9-.79-22.74,2.21-21.6,19.7,1.41,21.6.32,20.87,20.57,21.94C118,260.35,126.6,256.72,123,241.84Zm-21.08,4.45c-5,0-6-2.47-6.13-6.77-.08-4.92,1.06-7.82,6.85-7.81s7.31,2.72,6.79,7.82C110.15,245.27,106.93,246.32,101.92,246.29ZM109.07,0c8.67,14.07,9.86,29.51,8.34,45.47-.84,8.78-4.17,16.06-14,16.48-10.72.46-14.59-7-15.52-16.48C86.39,29.52,87.6,14.07,96.27,0,83.09,10.44,76.71,42.76,85.12,57.52c3.62,6.35,9.11,10,16.75,10.21,8.25.23,14.38-3.23,18.35-10.21C128.62,42.76,122.25,10.44,109.07,0Zm-60,13.35a9.36,9.36,0,0,0-1.59,0C8.44,11.09-1.41,36.83.21,58.21c.35,4.52,1.06,8.72,6.58,9.13,6,.44,6.33-4.11,7-8.44,4.63-30,6-30.94,35.72-31.57,6.55-.14,17.84,3.69,17.65-7C67,9.84,55.77,14.51,49.11,13.35Z"/><path class="cls-2" d="M381.56,334.87c-.22,6.15-5.88,6.62-10.76,6.76-5.29.14-10.58,0-15.87,0a51.72,51.72,0,0,1-6.35,0c-6.92-.85-16.53,3.41-19.53-5.85-3.23-10-2.88-20.83.24-31.16a5.2,5.2,0,0,1,6.18-3.73,7.08,7.08,0,0,1,6.09,8.08c-3.75,20.07,8.86,19.42,22.22,18.27a39.6,39.6,0,0,1,6.35,0C375.37,327.67,381.83,327.4,381.56,334.87Z"/><path class="cls-2" d="M403.76,305.55a74.81,74.81,0,1,0-45.1,99.89c27.57-9.34,42.19-30.51,51.15-56.71v-28.8Q406.78,312.75,403.76,305.55Zm-69.35,90.39c-33-.25-61.08-28.48-61.15-61.42-.07-33.61,29.2-62.37,62.58-61.47s60.91,29.31,60.36,62.1C395.64,368.22,367.22,396.19,334.41,395.94Z"/><path class="cls-3" d="M409.81,41.59V262.35c-12.13,7.62-13.42-.1-13.43-9.52q0-59.81,0-119.6c0-25,.07-50,0-74.95-.08-23.47-7.12-30.1-30.11-31.13-8.09-.37-22.82,5.22-22.8-6.21,0-13.14,15.08-6.55,23.47-7.27C388,11.85,401.94,22.39,409.81,41.59Z"/><path class="cls-4" d="M179.45,0h-16c-12.24,11.09-18,41.88-10.6,56.59,4,7.91,10.54,11.6,19.36,11.08s15.78-5,17.34-13.6C193,35,196.39,15.46,179.45,0Zm-8.81,15.27c12-.28,4.28,12.6,7.85,18.25-2.75,7.51,3.75,19.82-8.09,19.72-10-.08-6.59-11.6-6.37-18.32C164.25,27.79,159.53,15.52,170.64,15.27Z"/><path class="cls-4" d="M246.64,0h-16c-16.93,15.46-13.57,35-10.1,54.07,1.56,8.59,8.44,13.08,17.34,13.6s15.37-3.17,19.36-11.08C264.68,41.88,258.87,11.09,246.64,0Zm-8.27,15.08c11.85-.58,7.78,11.61,7.68,18.66s4.34,19.45-6.77,19.47-5-12.48-7.23-19C233.75,27.18,228.76,15.55,238.37,15.08Z"/><path class="cls-2" d="M109.07,0H96.27C83.09,10.44,76.71,42.76,85.12,57.52c3.62,6.35,9.11,10,16.75,10.21,8.25.23,14.38-3.23,18.35-10.21C128.62,42.76,122.25,10.44,109.07,0Zm-6.25,15c10.25.2,5.24,10.5,6.47,16.53a25.29,25.29,0,0,1,0,4c-1.73,5.65,4.12,17.4-6,17.64-12.18.28-5.33-12.12-7.21-18.84a7,7,0,0,1,0-3.15C97.3,25.25,92.32,14.85,102.82,15Z"/><path class="cls-2" d="M313.83,0H301c-13.18,10.44-19.56,42.76-11.15,57.52,3.62,6.35,9.11,10,16.75,10.21C314.88,68,321,64.5,325,57.52,333.38,42.76,327,10.44,313.83,0Zm-7.11,14.66c5.31-.42,7.3,3.2,7.31,8.09,0,6.34.12,12.69,0,19-.09,5.17.79,12-6.69,11.92s-6.4-6.9-6.56-12.07c-.08-2.64,0-5.28,0-7.93h.06c0-3.7,0-7.4,0-11.1C300.77,18.42,302.4,15,306.72,14.66Z"/><path class="cls-5" d="M382.38,236.55c0,5.93,2.05,15.1-7,14.88-8.67-.21-6.78-9.24-6.8-15.34-.11-33.06-.46-66.12.18-99.16.21-10.65-2-14.56-13.73-14.51q-150.34.73-300.68,0c-10.88,0-13.12,3.36-13.06,13.54q.63,106.35,0,212.71c-.07,14.5,5.74,19.84,20,19.74,57-.42,114.08-.18,171.13-.16,4.26,0,8.57-.23,12.77.34,4,.54,7.16,3.07,6.91,7.41-.21,3.61-3.4,5.25-6.75,5.63a101.12,101.12,0,0,1-11.15.49q-84.77,0-169.53,0c-28.33-.06-37.06-8.86-37.1-37.37-.1-72,.32-143.94-.32-215.91-.14-15,3.61-20.54,19.64-20.24,52.76,1,105.55.37,158.33.37,53.31,0,106.63.42,159.93-.3,13.64-.18,17.65,4.47,17.43,17.51C382.07,163,382.55,199.76,382.38,236.55Z"/><path class="cls-3" d="M376.77,94.89a83.9,83.9,0,0,1-14.28.84c-110.88,0-221.75.27-332.62-.29-13.3-.07-16.59,3.3-16.49,16.58.67,83.69.32,167.38.35,251.06,0,26.28,6.78,33,33.24,33q99.95,0,199.89,0a108.5,108.5,0,0,1,14.31.81c2.83.37,4.47,2.62,4.5,5.66s-1.65,5.46-4.28,6a66.13,66.13,0,0,1-12.68.91q-102.35.06-204.68,0c-30.21,0-43.7-13.6-43.72-43.95C.25,277.07.57,188.58,0,100.1-.09,86.17,3.79,81.62,18,81.79c58.09.69,116.2.29,174.3.29q85.56,0,171.11,0c4.25,0,8.51.18,12.74.58,2.81.27,5.14,1.74,5.35,4.89C381.71,91.05,380.32,94.27,376.77,94.89Z"/><path class="cls-6" d="M170.53,150c-16-.84-23.69,3.74-19.39,20.65-4.21,16.82,3.26,21.86,19.38,21.05,20.9-1,21.12-.39,21.16-20.24C191.73,150.21,191.69,151.06,170.53,150ZM170.18,178c-5.82.25-6.75-3.25-6.84-8.13-.12-6,3.17-6.75,8-6.81,5.84-.07,7,3.14,7,8C178.31,176.72,175.16,178.38,170.18,178Z"/><path class="cls-6" d="M259.82,170.63c-.94-20.42-.32-19.28-21.8-20.77-17.55-1.22-20.62,6.55-19.85,21.55,1,19.83.44,20,23.85,20C257.33,195.16,260.51,185.83,259.82,170.63Zm-20,7.37c-5,.37-8.06-1.41-8.1-7,0-4.95,1.3-8,7.1-7.95,4.92.06,8,1,7.94,6.9C246.67,174.91,245.6,178.28,239.83,178Z"/><path class="cls-6" d="M192,239.47c-1.11-21-.44-21.29-20.07-21.35-21.38-.06-20.58,0-21.64,21-.78,15.67,3.22,24,20.27,19.6C187.12,262.63,192.84,255.93,192,239.47Zm-21.11,7c-5-.14-8.42-1.34-7.32-6.72-.62-5.92,1.73-8.32,7.15-8.32,5.25,0,7.7,2.16,7.71,7.52S176.29,246.6,170.85,246.46Z"/><path class="cls-6" d="M259,239.34c3.88-16.52-2.65-22.39-19.19-21.5-21,1.13-21.33.5-21.39,20-.07,21.43,0,20.64,20.92,21.68C254.93,260.32,263.46,256.5,259,239.34Zm-12.37,1.19c.16,6.59-4.56,5.82-8.77,5.82-6.28,0-6.21-4.43-6-8.8.26-6,4.48-6.21,9-6C247.06,231.78,246.77,236.2,246.63,240.53Z"/><path class="cls-5" d="M123.2,173.61c-1.3-11.6,3.72-25.06-17.15-23.76-23.51,1.47-23.59.18-23.73,21.73-.94,9.8-1.79,21.74,17.77,20.1C112.64,190.63,125.41,193.29,123.2,173.61Zm-20.16,4c-6.25.68-7.14-2.74-7.28-7.61-.16-5.83,2.78-6.79,7.73-6.78s6,2.62,6,6.85C109.58,174.92,108.62,178.48,103,177.61Z"/><path class="cls-5" d="M307.61,150.89c-16.85-4.33-21.15,3.24-21,19.21.16,14.78,2.34,22.79,19.87,21.62,21.19-1.41,20.49-.32,21.51-21.33C328.77,154.8,324.94,146.28,307.61,150.89Zm-.38,26.92c-5.94,0-6.68-3.21-6.68-8,0-4.5,1.47-6.52,6.3-6.62,5.22-.1,8,1.41,7.34,6.95C314.74,175.39,312.8,177.81,307.23,177.81Z"/><path class="cls-5" d="M123,241.84c0-23.64,0-22.9-19.42-23.94-14.9-.79-22.74,2.21-21.6,19.7,1.41,21.6.32,20.87,20.57,21.94C118,260.35,126.6,256.72,123,241.84Zm-21.08,4.45c-5,0-6-2.47-6.13-6.77-.08-4.92,1.06-7.82,6.85-7.81s7.31,2.72,6.79,7.82C110.15,245.27,106.93,246.32,101.92,246.29Z"/><path class="cls-5" d="M172,286.42c-13.35,1-26.13-.54-20.92,18.79-2.69,14.77-.29,23.75,18,22.62,22.49-1.39,21.77-.28,22.86-20C192.76,292.65,189.2,285.15,172,286.42ZM171,314c-3.78-.18-7.41,0-7.36-5.44,0-4.37-.26-8.51,6.11-8.26,4.37.17,8.7-.12,8.25,6.35C178.65,311.84,176.38,314.25,171,314Z"/><path class="cls-2" d="M122.42,308.11c3.34-15.61-1.39-22.58-18.64-21.76-14,.67-23.16,1-21.82,19.28,1.59,21.71.34,21.08,20.36,22.06C117.27,328.41,126.9,325.8,122.42,308.11Zm-19.48,5.72c-4-.23-7.17-.29-6.92-5.63.2-4.34-.3-8.85,5.67-7.55,4.74-.45,7.73.16,7.66,5.43C109.28,310.66,109.06,314.19,102.94,313.83Z"/><path class="cls-7" d="M67.16,20.3c.19,10.72-11.1,6.89-17.65,7C19.79,28,18.42,28.9,13.79,58.9c-.67,4.33-1,8.88-7,8.44C1.27,66.93.56,62.73.21,58.21-1.41,36.83,8.44,11.09,47.52,13.33a9.36,9.36,0,0,1,1.59,0C55.77,14.51,67,9.84,67.16,20.3Z"/><path class="cls-8" d="M327.81,236.55c-.62,3.91-1.58,7.93-5.66,8.6s-7-2.29-7.83-6.36c-2.13-10.31-8.4-8.64-12.77-3.07-3,3.82-2.82,11.44-9.93,8.68-6.76-2.63-4.29-10-4.53-15.56-.26-6.17,2.56-10.19,9.1-10.59,3.69-.23,7.41,0,11.12,0C326.33,218.06,330.16,221.59,327.81,236.55Z"/><path class="cls-8" d="M218.37,307.41c0-19.18,3.36-22.92,18.33-20.65,3.88.59,7.91,1.43,8.69,5.53s-2.15,7.12-6.17,7.9c-10.34,2-8.75,8.39-3.33,12.78,3.73,3,11.45,2.78,8.87,9.85-2.5,6.85-9.91,4.42-15.49,4.66-7.15.31-10.76-3.43-10.87-10.54C218.34,313.76,218.39,310.58,218.37,307.41Z"/><path class="cls-1" d="M381.56,334.87c-.22,6.15-5.88,6.62-10.76,6.76-5.29.14-10.58,0-15.87,0a51.72,51.72,0,0,1-6.35,0c-6.92-.85-16.53,3.41-19.53-5.85-3.23-10-2.88-20.83.24-31.16a5.2,5.2,0,0,1,6.18-3.73,7.08,7.08,0,0,1,6.09,8.08c-3.75,20.07,8.86,19.42,22.22,18.27a39.6,39.6,0,0,1,6.35,0C375.37,327.67,381.83,327.4,381.56,334.87Z"/><path class="cls-9" d="M381.56,334.87c-.22,6.15-5.88,6.62-10.76,6.76-5.29.14-10.58,0-15.87,0a51.72,51.72,0,0,1-6.35,0c-6.92-.85-16.53,3.41-19.53-5.85-3.23-10-2.88-20.83.24-31.16a5.2,5.2,0,0,1,6.18-3.73,7.08,7.08,0,0,1,6.09,8.08c-3.75,20.07,8.86,19.42,22.22,18.27a39.6,39.6,0,0,1,6.35,0C375.37,327.67,381.83,327.4,381.56,334.87Z"/></g></g></svg>