<?xml version="1.0" encoding="iso-8859-1"?>
<!-- Generator: Adobe Illustrator 19.0.0, SVG Export Plug-In . SVG Version: 6.00 Build 0)  -->
<svg version="1.1" id="Layer_1" xmlns="http://www.w3.org/2000/svg" xmlns:xlink="http://www.w3.org/1999/xlink" x="0px" y="0px"
	 viewBox="0 0 512 512" style="enable-background:new 0 0 512 512;" xml:space="preserve">
<g>
	<g>
		<g>
			<path d="M469.333,119.467H384c-14.114,0-25.6-11.486-25.6-25.6V51.2c0-4.71-3.814-8.533-8.533-8.533
				c-4.719,0-8.533,3.823-8.533,8.533v42.667c0,23.526,19.14,42.667,42.667,42.667h76.8v332.8c0,14.114-11.486,25.6-25.6,25.6H76.8
				c-14.114,0-25.6-11.486-25.6-25.6V42.667c0-14.114,11.486-25.6,25.6-25.6h269.534L429.167,99.9c3.337,3.337,8.73,3.337,12.066,0
				c3.336-3.336,3.336-8.73,0-12.066L355.9,2.5c-1.596-1.604-3.763-2.5-6.033-2.5H76.8C53.274,0,34.133,19.14,34.133,42.667v426.667
				C34.133,492.86,53.274,512,76.8,512h358.4c23.526,0,42.667-19.14,42.667-42.667V128
				C477.867,123.29,474.052,119.467,469.333,119.467z"/>
			<path d="M375.467,290.133c9.412,0,17.067-7.654,17.067-17.067c0-9.412-7.654-17.067-17.067-17.067
				c-6.281,0-11.733,3.456-14.694,8.533h-75.639l-23.1-23.1c-3.337-3.336-8.73-3.336-12.066,0l-23.1,23.1h-75.639
				c-2.961-5.077-8.414-8.533-14.694-8.533c-9.404,0-17.067,7.654-17.067,17.067c0,9.412,7.663,17.067,17.067,17.067
				c6.281,0,11.733-3.456,14.694-8.533h43.921c-32.99,19.789-55.364,54.733-58.24,93.867H128c-4.719,0-8.533,3.823-8.533,8.533
				v34.133c0,4.71,3.814,8.533,8.533,8.533h34.133c4.719,0,8.533-3.823,8.533-8.533V384c0-4.71-3.814-8.533-8.533-8.533h-8.149
				c3.652-42.667,34.432-79.266,76.382-90.368l19.601,19.601c1.664,1.664,3.849,2.5,6.033,2.5c2.185,0,4.369-0.836,6.033-2.5
				l19.601-19.601c41.941,11.119,72.73,47.727,76.382,90.368h-8.149c-4.719,0-8.533,3.823-8.533,8.533v34.133
				c0,4.71,3.814,8.533,8.533,8.533H384c4.719,0,8.533-3.823,8.533-8.533V384c0-4.71-3.814-8.533-8.533-8.533h-8.917
				c-2.867-39.125-25.259-74.069-58.257-93.867h43.947C363.733,286.677,369.186,290.133,375.467,290.133z M153.6,409.6h-17.067
				v-17.067H153.6V409.6z M256,286.601l-13.534-13.534L256,259.533l13.534,13.534L256,286.601z M358.4,392.533h17.067V409.6H358.4
				V392.533z"/>
		</g>
	</g>
</g>
<g>
</g>
<g>
</g>
<g>
</g>
<g>
</g>
<g>
</g>
<g>
</g>
<g>
</g>
<g>
</g>
<g>
</g>
<g>
</g>
<g>
</g>
<g>
</g>
<g>
</g>
<g>
</g>
<g>
</g>
</svg>
