<?xml version="1.0" encoding="iso-8859-1"?>
<!-- Generator: Adobe Illustrator 19.0.0, SVG Export Plug-In . SVG Version: 6.00 Build 0)  -->
<svg version="1.1" id="Layer_1" xmlns="http://www.w3.org/2000/svg" xmlns:xlink="http://www.w3.org/1999/xlink" x="0px" y="0px"
	 viewBox="0 0 512 512" style="enable-background:new 0 0 512 512;" xml:space="preserve">
<g>
	<g>
		<g>
			<path d="M384,426.667c4.719,0,8.533-3.823,8.533-8.533V247.467c0-4.71-3.814-8.533-8.533-8.533h-34.133
				c-4.719,0-8.533,3.823-8.533,8.533V409.6h-17.067v-93.867c0-4.71-3.814-8.533-8.533-8.533H281.6
				c-4.719,0-8.533,3.823-8.533,8.533V409.6H256v-128c0-4.71-3.823-8.533-8.533-8.533h-34.133c-4.71,0-8.533,3.823-8.533,8.533v128
				h-17.067v-59.733c0-4.71-3.823-8.533-8.533-8.533h-34.133c-4.71,0-8.533,3.823-8.533,8.533V409.6H128
				c-4.71,0-8.533,3.823-8.533,8.533s3.823,8.533,8.533,8.533h17.067c4.71,0,8.533-3.823,8.533-8.533V358.4h17.067v59.733
				c0,4.71,3.823,8.533,8.533,8.533h34.133c4.71,0,8.533-3.823,8.533-8.533v-128h17.067v128c0,4.71,3.823,8.533,8.533,8.533H281.6
				c4.719,0,8.533-3.823,8.533-8.533v-93.867H307.2v93.867c0,4.71,3.814,8.533,8.533,8.533h34.133c4.719,0,8.533-3.823,8.533-8.533
				V256h17.067v162.133C375.467,422.844,379.281,426.667,384,426.667z"/>
			<path d="M469.333,119.467H384c-14.114,0-25.6-11.486-25.6-25.6V51.2c0-4.71-3.814-8.533-8.533-8.533
				c-4.719,0-8.533,3.823-8.533,8.533v42.667c0,23.526,19.14,42.667,42.667,42.667h76.8v332.8c0,14.114-11.486,25.6-25.6,25.6H76.8
				c-14.114,0-25.6-11.486-25.6-25.6V42.667c0-14.114,11.486-25.6,25.6-25.6h269.534L429.167,99.9c3.337,3.337,8.73,3.337,12.066,0
				c3.336-3.336,3.336-8.73,0-12.066L355.9,2.5c-1.596-1.604-3.763-2.5-6.033-2.5H76.8C53.274,0,34.133,19.14,34.133,42.667v426.667
				C34.133,492.86,53.274,512,76.8,512h358.4c23.526,0,42.667-19.14,42.667-42.667V128
				C477.867,123.29,474.052,119.467,469.333,119.467z"/>
		</g>
	</g>
</g>
<g>
</g>
<g>
</g>
<g>
</g>
<g>
</g>
<g>
</g>
<g>
</g>
<g>
</g>
<g>
</g>
<g>
</g>
<g>
</g>
<g>
</g>
<g>
</g>
<g>
</g>
<g>
</g>
<g>
</g>
</svg>
