<?xml version="1.0" encoding="iso-8859-1"?>
<!-- Generator: Adobe Illustrator 19.0.0, SVG Export Plug-In . SVG Version: 6.00 Build 0)  -->
<svg version="1.1" id="Layer_1" xmlns="http://www.w3.org/2000/svg" xmlns:xlink="http://www.w3.org/1999/xlink" x="0px" y="0px"
	 viewBox="0 0 512 512" style="enable-background:new 0 0 512 512;" xml:space="preserve">
<g>
	<g>
		<g>
			<path d="M311.91,391.637c1.229,0.614,2.534,0.896,3.814,0.896c3.132,0,6.144-1.724,7.637-4.71l34.133-68.267
				c1.203-2.406,1.203-5.231,0-7.637l-34.133-68.267c-2.108-4.215-7.228-5.931-11.452-3.814c-4.216,2.108-5.922,7.228-3.814,11.452
				l32.222,64.444l-32.222,64.452C305.988,384.401,307.695,389.53,311.91,391.637z"/>
			<path d="M469.333,119.467H384c-14.123,0-25.6-11.477-25.6-25.6V51.2c0-4.71-3.823-8.533-8.533-8.533
				c-4.719,0-8.533,3.823-8.533,8.533v42.667c0,23.526,19.14,42.667,42.667,42.667h76.8v332.8c0,14.123-11.486,25.6-25.6,25.6H76.8
				c-14.123,0-25.6-11.477-25.6-25.6V42.667c0-14.114,11.477-25.6,25.6-25.6h269.525L429.158,99.9c3.337,3.337,8.738,3.337,12.075,0
				c3.328-3.328,3.328-8.73,0-12.066L355.9,2.5c-1.604-1.596-3.772-2.5-6.033-2.5H76.8C53.274,0,34.133,19.14,34.133,42.667v426.667
				C34.133,492.86,53.274,512,76.8,512h358.4c23.518,0,42.667-19.14,42.667-42.667V128
				C477.867,123.29,474.044,119.467,469.333,119.467z"/>
			<path d="M273.963,260.719l-51.2,102.4c-2.108,4.215-0.401,9.344,3.814,11.452c1.229,0.614,2.534,0.896,3.814,0.896
				c3.132,0,6.144-1.724,7.637-4.71l51.2-102.4c2.108-4.224,0.401-9.344-3.814-11.452
				C281.182,254.797,276.07,256.503,273.963,260.719z"/>
			<path d="M200.081,239.838c-4.233-2.116-9.344-0.401-11.452,3.814l-34.133,68.267c-1.203,2.406-1.203,5.231,0,7.637l34.133,68.267
				c1.493,2.987,4.506,4.71,7.646,4.71c1.271,0,2.577-0.282,3.806-0.896c4.215-2.108,5.922-7.236,3.814-11.452l-32.222-64.452
				l32.222-64.444C206.003,247.066,204.297,241.946,200.081,239.838z"/>
		</g>
	</g>
</g>
<g>
</g>
<g>
</g>
<g>
</g>
<g>
</g>
<g>
</g>
<g>
</g>
<g>
</g>
<g>
</g>
<g>
</g>
<g>
</g>
<g>
</g>
<g>
</g>
<g>
</g>
<g>
</g>
<g>
</g>
</svg>
