<?xml version="1.0" encoding="iso-8859-1"?>
<!-- Generator: Adobe Illustrator 19.0.0, SVG Export Plug-In . SVG Version: 6.00 Build 0)  -->
<svg version="1.1" id="Layer_1" xmlns="http://www.w3.org/2000/svg" xmlns:xlink="http://www.w3.org/1999/xlink" x="0px" y="0px"
	 viewBox="0 0 512 512" style="enable-background:new 0 0 512 512;" xml:space="preserve">
<g>
	<g>
		<g>
			<path d="M469.333,119.467H384c-14.114,0-25.6-11.486-25.6-25.6V51.2c0-4.71-3.823-8.533-8.533-8.533
				c-4.71,0-8.533,3.823-8.533,8.533v42.667c0,23.526,19.14,42.667,42.667,42.667h76.8v332.8c0,14.114-11.486,25.6-25.6,25.6H76.8
				c-14.114,0-25.6-11.486-25.6-25.6V42.667c0-14.114,11.486-25.6,25.6-25.6h269.534L429.167,99.9c3.337,3.337,8.73,3.337,12.066,0
				c3.336-3.336,3.336-8.73,0-12.066L355.9,2.5c-1.596-1.604-3.772-2.5-6.033-2.5H76.8C53.274,0,34.133,19.14,34.133,42.667v426.667
				C34.133,492.86,53.274,512,76.8,512h358.4c23.526,0,42.667-19.14,42.667-42.667V128
				C477.867,123.29,474.044,119.467,469.333,119.467z"/>
			<path d="M384,426.667c4.71,0,8.533-3.823,8.533-8.533V247.467c0-4.71-3.823-8.533-8.533-8.533H128
				c-4.71,0-8.533,3.823-8.533,8.533v170.667c0,4.71,3.823,8.533,8.533,8.533h221.867c4.71,0,8.533-3.823,8.533-8.533
				s-3.823-8.533-8.533-8.533h-59.733v-34.133h85.333v42.667C375.467,422.844,379.29,426.667,384,426.667z M170.667,409.6h-34.133
				v-34.133h34.133V409.6z M170.667,358.4h-34.133v-34.133h34.133V358.4z M170.667,307.2h-34.133V256h34.133V307.2z M273.067,409.6
				h-85.333v-34.133h85.333V409.6z M273.067,358.4h-85.333v-34.133h85.333V358.4z M273.067,307.2h-85.333V256h85.333V307.2z
				 M290.133,256h85.333v51.2h-85.333V256z M290.133,358.4v-34.133h85.333V358.4H290.133z"/>
		</g>
	</g>
</g>
<g>
</g>
<g>
</g>
<g>
</g>
<g>
</g>
<g>
</g>
<g>
</g>
<g>
</g>
<g>
</g>
<g>
</g>
<g>
</g>
<g>
</g>
<g>
</g>
<g>
</g>
<g>
</g>
<g>
</g>
</svg>
