<?xml version="1.0" encoding="iso-8859-1"?>
<!-- Generator: Adobe Illustrator 19.0.0, SVG Export Plug-In . SVG Version: 6.00 Build 0)  -->
<svg version="1.1" id="Layer_1" xmlns="http://www.w3.org/2000/svg" xmlns:xlink="http://www.w3.org/1999/xlink" x="0px" y="0px"
	 viewBox="0 0 512 512" style="enable-background:new 0 0 512 512;" xml:space="preserve">
<g>
	<g>
		<g>
			<path d="M241.434,372.966c3.337,3.337,8.73,3.337,12.066,0l70.767-70.767l53.7,53.7c3.337,3.336,8.73,3.336,12.066,0
				c3.336-3.337,3.336-8.73,0-12.066L330.3,284.1c-3.337-3.337-8.73-3.337-12.066,0l-70.767,70.767l-36.634-36.634
				c-3.337-3.336-8.73-3.336-12.066,0L104.9,412.1c-2.441,2.441-3.174,6.11-1.852,9.301c1.323,3.183,4.437,5.265,7.885,5.265H384
				c4.719,0,8.533-3.823,8.533-8.533S388.719,409.6,384,409.6H131.533l73.267-73.267L241.434,372.966z"/>
			<path d="M469.333,119.467H384c-14.114,0-25.6-11.486-25.6-25.6V51.2c0-4.71-3.814-8.533-8.533-8.533
				c-4.719,0-8.533,3.823-8.533,8.533v42.667c0,23.526,19.14,42.667,42.667,42.667h76.8v332.8c0,14.114-11.486,25.6-25.6,25.6H76.8
				c-14.114,0-25.6-11.486-25.6-25.6V42.667c0-14.114,11.486-25.6,25.6-25.6h269.534L429.167,99.9c3.337,3.337,8.73,3.337,12.066,0
				c3.336-3.336,3.336-8.73,0-12.066L355.9,2.5c-1.596-1.604-3.763-2.5-6.033-2.5H76.8C53.274,0,34.133,19.14,34.133,42.667v426.667
				C34.133,492.86,53.274,512,76.8,512h358.4c23.526,0,42.667-19.14,42.667-42.667V128
				C477.867,123.29,474.052,119.467,469.333,119.467z"/>
			<path d="M127.471,260.267c1.579,2.739,4.446,4.267,7.398,4.267c1.442,0,2.91-0.367,4.258-1.143l15.761-9.097
				c4.267,4.344,9.719,7.45,15.787,9.02V281.6c0,4.71,3.823,8.533,8.533,8.533c4.71,0,8.533-3.823,8.533-8.533v-18.295
				c6.067-1.57,11.511-4.685,15.778-9.028l15.77,9.105c1.34,0.777,2.816,1.143,4.258,1.143c2.953,0,5.82-1.528,7.398-4.267
				c2.355-4.079,0.964-9.301-3.123-11.657l-15.863-9.156c0.811-2.901,1.374-5.896,1.374-9.054s-0.572-6.161-1.374-9.062
				l15.855-9.156c4.087-2.364,5.478-7.578,3.123-11.656c-2.355-4.087-7.586-5.487-11.656-3.132l-15.77,9.105
				c-4.267-4.335-9.711-7.441-15.778-9.02v-18.278c0-4.71-3.823-8.533-8.533-8.533c-4.71,0-8.533,3.823-8.533,8.533v18.278
				c-6.067,1.579-11.52,4.685-15.787,9.028l-15.753-9.097c-4.104-2.355-9.31-0.956-11.656,3.123
				c-2.355,4.087-0.956,9.301,3.123,11.665l15.846,9.148c-0.802,2.901-1.374,5.897-1.374,9.054s0.572,6.161,1.374,9.062
				l-15.846,9.156C126.507,250.965,125.116,256.188,127.471,260.267z M179.2,213.325c9.412,0,17.067,7.654,17.067,17.067
				c0,9.404-7.646,17.058-17.05,17.067h-0.009h-0.017c-9.412,0-17.058-7.654-17.058-17.067
				C162.133,220.979,169.788,213.325,179.2,213.325z"/>
		</g>
	</g>
</g>
<g>
</g>
<g>
</g>
<g>
</g>
<g>
</g>
<g>
</g>
<g>
</g>
<g>
</g>
<g>
</g>
<g>
</g>
<g>
</g>
<g>
</g>
<g>
</g>
<g>
</g>
<g>
</g>
<g>
</g>
</svg>
