<?xml version="1.0" encoding="iso-8859-1"?>
<!-- Generator: Adobe Illustrator 19.0.0, SVG Export Plug-In . SVG Version: 6.00 Build 0)  -->
<svg version="1.1" id="Layer_1" xmlns="http://www.w3.org/2000/svg" xmlns:xlink="http://www.w3.org/1999/xlink" x="0px" y="0px"
	 viewBox="0 0 512 512" style="enable-background:new 0 0 512 512;" xml:space="preserve">
<g>
	<g>
		<g>
			<path d="M315.733,238.933c-4.668,0-8.414,3.755-8.474,8.431c-0.06,4.668,3.712,8.516,8.38,8.636
				c3.934,0.102,8.627,1.664,8.627,8.533v8.533c0,3.277,0.401,27.341,11.836,41.975c-11.665,11.145-11.836,25.557-11.836,26.291
				v25.6c0,6.869-4.685,8.431-8.619,8.533c-4.668,0.051-8.448,3.857-8.448,8.533c0,4.719,3.823,8.533,8.533,8.533
				c10.291,0,25.6-6.81,25.6-25.6v-25.6c0-0.111,0.145-11.861,12.356-17.963c2.884-1.442,4.71-4.403,4.71-7.637
				c0-3.226-1.826-6.187-4.71-7.629c-9.276-4.634-12.331-25.617-12.356-35.038v-8.533
				C341.333,245.751,326.025,238.933,315.733,238.933z"/>
			<path d="M469.333,119.467H384c-14.114,0-25.6-11.477-25.6-25.6V51.2c0-4.71-3.814-8.533-8.533-8.533
				c-4.71,0-8.533,3.823-8.533,8.533v42.667c0,23.526,19.14,42.667,42.667,42.667h76.8v332.8c0,14.123-11.477,25.6-25.6,25.6H76.8
				c-14.114,0-25.6-11.477-25.6-25.6V42.667c0-14.114,11.486-25.6,25.6-25.6h269.534l82.833,82.842
				c3.337,3.328,8.738,3.328,12.066,0c3.336-3.337,3.336-8.738,0-12.075L355.9,2.5c-1.596-1.596-3.763-2.5-6.033-2.5H76.8
				C53.274,0,34.133,19.149,34.133,42.667v426.667C34.133,492.86,53.274,512,76.8,512h358.4c23.526,0,42.667-19.14,42.667-42.667
				V128C477.867,123.29,474.052,119.467,469.333,119.467z"/>
			<path d="M252.186,357.504c1.229,0.614,2.526,0.896,3.806,0.896c3.132,0,6.153-1.724,7.646-4.71
				c10.325-20.651,0.427-40.917,0-41.771c-2.108-4.215-7.219-5.931-11.452-3.814c-4.215,2.108-5.922,7.236-3.814,11.452
				c0.068,0.128,6.443,13.611,0,26.496C246.264,350.268,247.97,355.396,252.186,357.504z"/>
			<path d="M196.352,256c4.676-0.043,8.448-3.849,8.448-8.533c0-4.71-3.814-8.533-8.533-8.533c-10.291,0-25.6,6.818-25.6,25.6
				l2.748,2.27c-1.69,1.562-2.748,3.789-2.748,6.263c0,9.421-3.012,30.379-12.348,35.038c-2.893,1.442-4.719,4.403-4.719,7.629
				c0,3.234,1.826,6.195,4.719,7.637c11.921,5.965,12.339,17.57,12.348,17.963v25.6c0,18.79,15.309,25.6,25.6,25.6
				c4.676,0,8.422-3.746,8.474-8.422c0.06-4.668-3.703-8.516-8.371-8.644c-3.934-0.094-8.636-1.655-8.636-8.533v-25.6
				c0-0.734-0.162-15.147-11.827-26.291c8.73-11.179,11.025-27.861,11.622-36.574l0.205,0.171v-5.572
				c0-2.475-1.05-4.702-2.739-6.263l2.739-2.27C187.733,257.673,192.418,256.111,196.352,256z"/>
			<path d="M256.256,290.133c4.719,0,8.542-3.814,8.542-8.533c0-4.71-3.823-8.533-8.542-8.533h-0.085
				c-4.71,0-8.491,3.823-8.491,8.533C247.68,286.319,251.546,290.133,256.256,290.133z"/>
		</g>
	</g>
</g>
<g>
</g>
<g>
</g>
<g>
</g>
<g>
</g>
<g>
</g>
<g>
</g>
<g>
</g>
<g>
</g>
<g>
</g>
<g>
</g>
<g>
</g>
<g>
</g>
<g>
</g>
<g>
</g>
<g>
</g>
</svg>
