<?xml version="1.0" encoding="iso-8859-1"?>
<!-- Generator: Adobe Illustrator 19.0.0, SVG Export Plug-In . SVG Version: 6.00 Build 0)  -->
<svg version="1.1" id="Layer_1" xmlns="http://www.w3.org/2000/svg" xmlns:xlink="http://www.w3.org/1999/xlink" x="0px" y="0px"
	 viewBox="0 0 512 512" style="enable-background:new 0 0 512 512;" xml:space="preserve">
<g>
	<g>
		<g>
			<path d="M296.721,288.538c-3.328,3.337-3.328,8.738,0,12.075c1.672,1.664,3.857,2.5,6.033,2.5c2.185,0,4.369-0.836,6.042-2.5
				l38.571-38.579c9.284-9.284,16.947-29.252,0-46.199c-16.811-16.811-36.813-9.242-46.199,0l-38.579,38.571
				c-3.328,3.337-3.328,8.738,0,12.075c3.337,3.328,8.738,3.328,12.075,0l38.477-38.485c2.671-2.551,12.177-10.078,22.161-0.094
				c10.061,10.069,2.509,19.473,0,22.067L296.721,288.538z"/>
			<path d="M469.333,119.467H384c-14.114,0-25.6-11.486-25.6-25.6V51.2c0-4.71-3.823-8.533-8.533-8.533
				c-4.71,0-8.533,3.823-8.533,8.533v42.667c0,23.526,19.14,42.667,42.667,42.667h76.8v332.8c0,14.114-11.486,25.6-25.6,25.6H76.8
				c-14.114,0-25.6-11.486-25.6-25.6V42.667c0-14.114,11.486-25.6,25.6-25.6h269.534L429.167,99.9c3.337,3.337,8.73,3.337,12.066,0
				c3.336-3.336,3.336-8.73,0-12.066L355.9,2.5c-1.596-1.604-3.772-2.5-6.033-2.5H76.8C53.274,0,34.133,19.14,34.133,42.667v426.667
				C34.133,492.86,53.274,512,76.8,512h358.4c23.526,0,42.667-19.14,42.667-42.667V128
				C477.867,123.29,474.044,119.467,469.333,119.467z"/>
			<path d="M221.867,307.2c-4.71,0-8.533,3.823-8.533,8.533s3.823,8.533,8.533,8.533c9.412,0,17.067,7.654,17.067,17.067
				c0,4.71,3.823,8.533,8.533,8.533s8.533-3.823,8.533-8.533C256,322.509,240.691,307.2,221.867,307.2z"/>
			<path d="M221.867,273.067c-37.641,0-68.267,30.626-68.267,68.267v59.733c0,4.71,3.823,8.533,8.533,8.533h59.733
				c37.641,0,68.267-30.626,68.267-68.267C290.133,303.693,259.507,273.067,221.867,273.067z M221.867,392.533h-51.2v-51.2
				c0-28.237,22.963-51.2,51.2-51.2c28.237,0,51.2,22.963,51.2,51.2C273.067,369.57,250.103,392.533,221.867,392.533z"/>
		</g>
	</g>
</g>
<g>
</g>
<g>
</g>
<g>
</g>
<g>
</g>
<g>
</g>
<g>
</g>
<g>
</g>
<g>
</g>
<g>
</g>
<g>
</g>
<g>
</g>
<g>
</g>
<g>
</g>
<g>
</g>
<g>
</g>
</svg>
