<?xml version="1.0" encoding="iso-8859-1"?>
<!-- Generator: Adobe Illustrator 19.0.0, SVG Export Plug-In . SVG Version: 6.00 Build 0)  -->
<svg version="1.1" id="Layer_1" xmlns="http://www.w3.org/2000/svg" xmlns:xlink="http://www.w3.org/1999/xlink" x="0px" y="0px"
	 viewBox="0 0 512 512" style="enable-background:new 0 0 512 512;" xml:space="preserve">
<g>
	<g>
		<g>
			<path d="M469.333,119.467H384c-14.123,0-25.6-11.486-25.6-25.6V51.2c0-4.71-3.814-8.533-8.533-8.533
				c-4.719,0-8.533,3.823-8.533,8.533v42.667c0,23.526,19.14,42.667,42.667,42.667h76.8v332.8c0,14.114-11.486,25.6-25.6,25.6H76.8
				c-14.123,0-25.6-11.486-25.6-25.6V42.667c0-14.114,11.477-25.6,25.6-25.6h269.534L429.167,99.9c3.328,3.337,8.73,3.337,12.066,0
				c3.328-3.336,3.328-8.73,0-12.066L355.9,2.5c-1.604-1.604-3.772-2.5-6.033-2.5H76.8C53.274,0,34.133,19.14,34.133,42.667v426.667
				C34.133,492.86,53.274,512,76.8,512h358.4c23.526,0,42.667-19.14,42.667-42.667V128
				C477.867,123.29,474.052,119.467,469.333,119.467z"/>
			<path d="M256,221.867c44.595,0,83.763,28.493,97.468,70.895c1.451,4.489,6.221,6.955,10.735,5.504
				c4.489-1.451,6.946-6.263,5.495-10.743C353.724,238.046,308.028,204.8,256,204.8c-65.877,0-119.467,53.589-119.467,119.467
				S190.123,443.733,256,443.733s119.467-53.589,119.467-119.467c0-4.719-3.814-8.533-8.533-8.533h-0.017H256
				c-1.143,0-2.253,0.23-3.285,0.666c-0.87,0.358-1.613,0.922-2.313,1.536c-0.128,0.111-0.299,0.162-0.418,0.282l-0.009,0.009
				c-0.009,0.008-0.009,0.008-0.017,0.017l-72.277,71.859c-15.002-17.818-24.081-40.772-24.081-65.835
				C153.6,267.802,199.535,221.867,256,221.867z M264.533,332.8h93.431c-4.122,49.656-43.776,89.31-93.431,93.432V332.8z
				 M247.467,344.781v81.451c-21.939-1.818-41.899-10.547-57.737-24.047L247.467,344.781z"/>
		</g>
	</g>
</g>
<g>
</g>
<g>
</g>
<g>
</g>
<g>
</g>
<g>
</g>
<g>
</g>
<g>
</g>
<g>
</g>
<g>
</g>
<g>
</g>
<g>
</g>
<g>
</g>
<g>
</g>
<g>
</g>
<g>
</g>
</svg>
