<?xml version="1.0" encoding="iso-8859-1"?>
<!-- Generator: Adobe Illustrator 19.0.0, SVG Export Plug-In . SVG Version: 6.00 Build 0)  -->
<svg version="1.1" id="Layer_1" xmlns="http://www.w3.org/2000/svg" xmlns:xlink="http://www.w3.org/1999/xlink" x="0px" y="0px"
	 viewBox="0 0 512 512" style="enable-background:new 0 0 512 512;" xml:space="preserve">
<g>
	<g>
		<g>
			<path d="M213.333,290.133H281.6c4.719,0,8.533-3.823,8.533-8.533s-3.814-8.533-8.533-8.533h-68.267
				c-4.719,0-8.533,3.823-8.533,8.533S208.614,290.133,213.333,290.133z"/>
			<path d="M469.333,119.467H384c-14.114,0-25.6-11.486-25.6-25.6V51.2c0-4.71-3.814-8.533-8.533-8.533
				c-4.719,0-8.533,3.823-8.533,8.533v42.667c0,23.526,19.14,42.667,42.667,42.667h76.8v332.8c0,14.114-11.486,25.6-25.6,25.6H76.8
				c-14.114,0-25.6-11.486-25.6-25.6V42.667c0-14.114,11.486-25.6,25.6-25.6h269.534L429.167,99.9c3.337,3.337,8.73,3.337,12.066,0
				c3.336-3.336,3.336-8.73,0-12.066L355.9,2.5c-1.596-1.604-3.763-2.5-6.033-2.5H76.8C53.274,0,34.133,19.14,34.133,42.667v426.667
				C34.133,492.86,53.274,512,76.8,512h358.4c23.526,0,42.667-19.14,42.667-42.667V128
				C477.867,123.29,474.052,119.467,469.333,119.467z"/>
			<path d="M213.333,324.267h85.333c4.719,0,8.533-3.823,8.533-8.533s-3.814-8.533-8.533-8.533h-85.333
				c-4.719,0-8.533,3.823-8.533,8.533S208.614,324.267,213.333,324.267z"/>
			<path d="M256,204.8c-4.719,0-8.533,3.823-8.533,8.533v8.533h-85.333c-4.719,0-8.533,3.823-8.533,8.533v136.533
				c0,4.71,3.814,8.533,8.533,8.533h62.993l-19.43,38.852c-2.108,4.215-0.393,9.335,3.823,11.452
				c1.22,0.606,2.526,0.896,3.806,0.896c3.132,0,6.144-1.724,7.646-4.719l23.236-46.481h23.586l23.236,46.481
				c1.502,2.995,4.514,4.719,7.646,4.719c1.28,0,2.586-0.29,3.806-0.896c4.215-2.116,5.931-7.236,3.823-11.452l-19.43-38.852h62.993
				c4.719,0,8.533-3.823,8.533-8.533V230.4c0-4.71-3.814-8.533-8.533-8.533h-85.333v-8.533C264.533,208.623,260.719,204.8,256,204.8
				z M341.333,238.933V358.4H170.667V238.933H341.333z"/>
		</g>
	</g>
</g>
<g>
</g>
<g>
</g>
<g>
</g>
<g>
</g>
<g>
</g>
<g>
</g>
<g>
</g>
<g>
</g>
<g>
</g>
<g>
</g>
<g>
</g>
<g>
</g>
<g>
</g>
<g>
</g>
<g>
</g>
</svg>
