<?xml version="1.0" encoding="iso-8859-1"?>
<!-- Generator: Adobe Illustrator 19.0.0, SVG Export Plug-In . SVG Version: 6.00 Build 0)  -->
<svg version="1.1" id="Layer_1" xmlns="http://www.w3.org/2000/svg" xmlns:xlink="http://www.w3.org/1999/xlink" x="0px" y="0px"
	 viewBox="0 0 512 512" style="enable-background:new 0 0 512 512;" xml:space="preserve">
<g>
	<g>
		<g>
			<path d="M288.367,368.7l18.935,18.935c1.664,1.664,3.849,2.5,6.033,2.5c2.185,0,4.361-0.836,6.033-2.5
				c3.328-3.337,3.328-8.738,0-12.066l-18.935-18.935c-3.336-3.337-8.73-3.337-12.066,0
				C285.03,359.962,285.03,365.363,288.367,368.7z"/>
			<path d="M469.333,119.467H384c-14.114,0-25.6-11.486-25.6-25.6V51.2c0-4.71-3.814-8.533-8.533-8.533
				c-4.719,0-8.533,3.823-8.533,8.533v42.667c0,23.526,19.14,42.667,42.667,42.667h76.8v332.8c0,14.114-11.486,25.6-25.6,25.6H76.8
				c-14.114,0-25.6-11.486-25.6-25.6V42.667c0-14.114,11.486-25.6,25.6-25.6h269.534L429.167,99.9c3.328,3.337,8.73,3.337,12.066,0
				c3.336-3.336,3.336-8.738,0-12.066L355.9,2.5c-1.604-1.604-3.763-2.5-6.033-2.5H76.8C53.274,0,34.133,19.14,34.133,42.667
				v426.667C34.133,492.86,53.274,512,76.8,512h358.4c23.526,0,42.667-19.14,42.667-42.667V128
				C477.867,123.29,474.052,119.467,469.333,119.467z"/>
			<path d="M256,358.4c18.825,0,34.133-15.317,34.133-34.133c0-18.825-15.309-34.133-34.133-34.133s-34.133,15.309-34.133,34.133
				C221.867,343.083,237.175,358.4,256,358.4z M256,307.2c9.404,0,17.067,7.654,17.067,17.067c0,9.412-7.663,17.067-17.067,17.067
				c-9.412,0-17.067-7.654-17.067-17.067C238.933,314.854,246.588,307.2,256,307.2z"/>
			<path d="M211.166,291.499c1.664,1.664,3.849,2.5,6.033,2.5c2.185,0,4.369-0.836,6.033-2.5c3.337-3.336,3.337-8.73,0-12.066
				l-18.799-18.799c-3.337-3.337-8.73-3.337-12.066,0c-3.337,3.328-3.337,8.73,0,12.066L211.166,291.499z"/>
			<path d="M136.533,324.267c0,65.877,53.589,119.467,119.467,119.467s119.467-53.589,119.467-119.467S321.877,204.8,256,204.8
				S136.533,258.389,136.533,324.267z M256,221.867c56.465,0,102.4,45.935,102.4,102.4c0,56.465-45.935,102.4-102.4,102.4
				s-102.4-45.935-102.4-102.4C153.6,267.802,199.535,221.867,256,221.867z"/>
		</g>
	</g>
</g>
<g>
</g>
<g>
</g>
<g>
</g>
<g>
</g>
<g>
</g>
<g>
</g>
<g>
</g>
<g>
</g>
<g>
</g>
<g>
</g>
<g>
</g>
<g>
</g>
<g>
</g>
<g>
</g>
<g>
</g>
</svg>
