<?xml version="1.0" encoding="iso-8859-1"?>
<!-- Generator: Adobe Illustrator 19.0.0, SVG Export Plug-In . SVG Version: 6.00 Build 0)  -->
<svg version="1.1" id="Layer_1" xmlns="http://www.w3.org/2000/svg" xmlns:xlink="http://www.w3.org/1999/xlink" x="0px" y="0px"
	 viewBox="0 0 512 512" style="enable-background:new 0 0 512 512;" xml:space="preserve">
<g>
	<g>
		<g>
			<path d="M221.867,247.467c-9.412,0-17.067,7.654-17.067,17.067v85.333c0,9.412,7.654,17.067,17.067,17.067h51.2
				c9.404,0,17.067-7.654,17.067-17.067v-85.333c0-9.412-7.663-17.067-17.067-17.067c-4.719,0-8.533,3.823-8.533,8.533
				s3.814,8.533,8.533,8.533v85.333h-51.2v-85.333h25.6c4.71,0,8.533-3.823,8.533-8.533v-34.133c0-4.71-3.823-8.533-8.533-8.533
				h-8.533v-17.067h8.533c4.71,0,8.533-3.823,8.533-8.533V153.6c0-4.71-3.823-8.533-8.533-8.533h-8.533V128h8.533
				c4.71,0,8.533-3.823,8.533-8.533V85.333c0-4.71-3.823-8.533-8.533-8.533h-8.533V59.733h8.533c4.71,0,8.533-3.823,8.533-8.533
				V25.6h90.334l82.833,82.833c3.328,3.337,8.73,3.337,12.066,0c3.328-3.336,3.328-8.73,0-12.066L355.9,11.034
				c-1.604-1.604-3.772-2.5-6.033-2.5h-102.4c-4.719,0-8.533,3.823-8.533,8.533v25.6H230.4c-4.719,0-8.533,3.823-8.533,8.533v34.133
				c0,4.71,3.814,8.533,8.533,8.533h8.533v17.067H230.4c-4.719,0-8.533,3.823-8.533,8.533V153.6c0,4.71,3.814,8.533,8.533,8.533
				h8.533V179.2H230.4c-4.719,0-8.533,3.823-8.533,8.533v34.133c0,4.71,3.814,8.533,8.533,8.533h8.533v17.067H221.867z"/>
			<path d="M247.723,315.733h-0.094c-4.702,0-8.482,3.823-8.482,8.533s3.857,8.533,8.576,8.533c4.71,0,8.533-3.823,8.533-8.533
				S252.433,315.733,247.723,315.733z"/>
			<path d="M469.333,119.467H384c-14.123,0-25.6-11.486-25.6-25.6V51.2c0-4.71-3.823-8.533-8.533-8.533
				c-4.719,0-8.533,3.823-8.533,8.533v42.667c0,23.526,19.14,42.667,42.667,42.667h76.8v332.8c0,14.114-11.486,25.6-25.6,25.6H76.8
				c-14.123,0-25.6-11.486-25.6-25.6V42.667c0-14.114,11.477-25.6,25.6-25.6h135.467c4.71,0,8.533-3.823,8.533-8.533
				S216.977,0,212.267,0H76.8C53.274,0,34.133,19.14,34.133,42.667v426.667C34.133,492.86,53.274,512,76.8,512h358.4
				c23.526,0,42.667-19.14,42.667-42.667V128C477.867,123.29,474.044,119.467,469.333,119.467z"/>
		</g>
	</g>
</g>
<g>
</g>
<g>
</g>
<g>
</g>
<g>
</g>
<g>
</g>
<g>
</g>
<g>
</g>
<g>
</g>
<g>
</g>
<g>
</g>
<g>
</g>
<g>
</g>
<g>
</g>
<g>
</g>
<g>
</g>
</svg>
